<?xml version="1.0" encoding="UTF-8"?>
<svg id="Capa_2" data-name="Capa 2" xmlns="http://www.w3.org/2000/svg" viewBox="0 0 472.54 236.26">
  <defs>
    <style>
      .cls-1 {
        fill: #fff;
      }
    </style>
  </defs>
  <g id="Capa_1-2" data-name="Capa 1">
    <path class="cls-1" d="M170.73,56.51c7.68,6.72,12.24,14.88,12.24,22.92,0,8.52-5.64,14.88-14.28,14.88-9.84,0-16.44-8.16-16.44-21.36,0-4.44.84-9.84,2.4-15.72-3.24-1.08-6.84-1.92-10.56-2.52-12.96,20.75-27.96,40.31-46.19,40.31-13.2,0-20.76-7.08-20.76-15.72,0-7.92,5.88-12.84,11.64-12.84,4.8,0,8.64,2.64,8.64,5.88,0,1.56-3.6,2.4-3.6,7.32,0,4.08,3.12,6.24,7.32,6.24,12.6,0,24.71-14.76,35.99-32.03-1.8-.12-3.72-.24-5.64-.24-8.88,0-17.4,2.28-20.4,4.8-.96.72-1.8,1.44-2.64,1.44-1.2,0-2.52-2.4-2.52-5.64,0-7.44,7.68-13.32,20.28-13.32,6.12,0,12.12.72,17.64,2.16C157.05,21.59,168.69,0,178.04,0c5.64,0,10.2,4.08,10.2,9,0,1.44-.36,3.12-1.08,5.04-3.6,9.24-12.24,24.96-16.44,42.47ZM152.13,41.39l-2.04,3.48c2.52.96,4.92,1.92,7.32,3,4.32-13.32,10.56-27.48,15.6-37.19-6.48,6.48-13.44,18.12-20.87,30.71ZM169.17,64.91c-.36,3.12-.6,6.36-.6,9.48,0,6.6,2.52,9.72,4.8,9.72,2.16,0,3.84-2.04,3.84-5.16,0-5.16-3-9.96-8.04-14.04Z"/>
    <path class="cls-1" d="M211.04,30.47c-2.16,3.72-4.68,8.88-6.84,14.76,2.28-.6,4.32-1.2,6.12-2.04,5.28-2.52,5.76-4.56,6.84-4.56,1.32,0,3,1.56,3,4.8,0,5.64-4.32,10.92-18.96,11.4-1.2,4.8-2.04,9.84-2.04,14.64,0,5.28,1.44,8.16,4.08,8.16,2.28,0,6.6-1.44,14.76-13.08.48-.72,1.2-1.08,1.8-1.08.84,0,1.56.72,1.56,1.8,0,.6-.12,1.2-.6,2.04-9,16.2-16.68,20.04-24,20.04s-11.16-6-11.16-14.4c0-2.88.36-7.44,1.32-12,.48-2.28,1.08-4.92,1.8-7.56-2.88-1.32-4.92-3.72-4.92-6.24,0-.84.36-1.56.96-1.56.84,0,2.16,1.08,5.64,1.08h.24c2.16-6.96,4.8-13.92,7.68-19.44,3.84-7.32,6.96-11.28,11.16-11.28,2.76,0,6.48,2.16,6.48,6.12,0,1.44-2.76,4.56-4.92,8.4Z"/>
    <path class="cls-1" d="M254.96,42.83h1.44c5.76-4.56,8.16-11.4,8.16-16.44,0-7.08-4.68-12.72-12.48-12.72-6.84,0-11.16,4.2-11.16,9,0,3.36,2.16,5.88,4.56,6.48,1.08.24,1.44.48,1.44,1.56,0,3.6-4.32,7.8-10.32,7.8s-11.4-4.44-11.4-11.88c0-11.88,13.68-20.04,28.91-20.04,13.68,0,25.43,6.6,25.43,18.48,0,8.28-5.76,14.88-14.16,19.44,6.96,2.4,11.76,8.88,11.76,17.16,0,14.76-18.24,30.59-38.15,30.59-13.32,0-24.12-7.2-24.12-18.48,0-8.16,6.24-14.16,12.84-14.16,4.44,0,7.44,2.88,7.44,4.8,0,2.28-3.72,4.92-3.72,10.92,0,5.64,3.6,10.32,9.48,10.32,10.44,0,18.96-9.96,18.96-22.32,0-5.16-2.16-10.08-6.96-12.48-1.92,1.2-4.2,1.92-6.6,1.92-3.96,0-5.4-1.32-5.4-3.72,0-3.48,6.24-6.24,14.04-6.24Z"/>
    <path class="cls-1" d="M294.63,60.71c-1.08,4.92-1.8,9.6-1.8,13.32,0,4.32,1.08,6.96,3.72,6.96,2.28,0,6.6-1.44,14.76-13.08.48-.72,1.2-1.08,1.8-1.08.84,0,1.56.72,1.56,1.8,0,.6-.12,1.2-.6,2.04-9,16.2-16.68,20.04-24,20.04-2.22,0-4.18-.53-5.83-1.6-3.15-2.05-3.96-6.54-5.45-13.76-.88-4.26-1.11-6.9-2.7-7.39-1.7-.52-3.49,1.84-3.96,1.44-.72-.62,3.66-6.13,7.01-12.85,2.33-4.66,3.2-7.98,4.17-10.98,4.15-12.84,16.94-41.1,28.83-41.25.6,0,2.82-.05,4.76,1.36,2.51,1.82,3.64,5.42,3.64,10.64,0,11.4-9.12,30.11-25.92,44.39ZM296.79,52.79c11.64-12.84,16.32-25.07,16.32-29.15,0-1.2-.36-1.92-1.32-1.92-2.88,0-10.32,15.6-15,31.07Z"/>
    <path class="cls-1" d="M330.38,51.47c0,2.16-1.08,3.36-2.88,6.72-3.6,6.84-5.28,13.08-5.28,17.16,0,3.6,1.56,4.92,3.24,4.92,2.28,0,5.88-.72,14.04-12.36.48-.72,1.2-1.08,1.8-1.08.84,0,1.56.72,1.56,1.8,0,.6-.12,1.2-.6,2.04-9,16.2-17.04,20.04-23.28,20.04-7.08,0-10.44-6.12-10.44-13.56,0-5.52,1.68-13.2,4.08-19.2,3-7.44,6.48-13.68,10.92-13.68s6.84,3.24,6.84,7.2ZM323.3,30.59c0-5.4,4.68-9.72,10.32-9.72s8.04,4.08,8.04,7.56c0,5.4-5.04,9.12-10.68,9.12-4.32,0-7.68-2.88-7.68-6.96Z"/>
    <path class="cls-1" d="M382.45,53.15c.36-1.2,1.08-1.68,1.92-1.68,1.2,0,2.64,1.2,2.64,3.24,0,.6-.12,1.44-.48,2.16-6.12,15.96-16.68,33.83-34.91,33.83-8.16,0-16.8-5.64-16.8-17.16,0-14.52,12.36-29.27,25.67-29.27,7.56,0,11.88,4.68,11.88,10.08,0,8.16-9.36,16.08-23.76,17.88.72,5.04,3.12,8.88,8.52,8.88,9,0,20.04-8.28,25.31-27.96ZM348.38,67.43c6.84-1.8,13.32-7.56,13.32-13.8,0-2.52-1.32-3.6-2.52-3.6-4.32,0-10.08,8.88-10.8,17.4Z"/>
    <path class="cls-1" d="M388.33,52.07h1.44c3.48,0,7.92-1.2,9.84-2.64,1.2-.96,2.16-1.32,2.88-1.32,1.92,0,4.68,2.52,4.68,5.52,0,1.8-.96,3.6-2.4,5.88-2.76,4.44-6.72,11.04-6.72,17.04,0,2.28,1.32,3.36,2.76,3.36,2.28,0,4.44-1.32,6.96-4.56.96-1.2,1.56-2.4,2.64-2.4.72,0,1.2.84,1.2,2.64,0,4.32-6.6,15.12-17.16,15.12-6,0-10.44-4.2-10.44-10.44,0-5.76,4.92-13.44,8.76-18.12-7.68-1.8-15.36-7.08-15.36-14.76,0-4.8,3.12-8.88,7.08-8.88,3,0,4.92,2.88,4.92,7.32,0,1.44-.36,3.6-1.08,6.24Z"/>
    <path class="cls-1" d="M103.69,236.26c-17.31,0-29.56-7.35-40.33-14.53-8.16,8.49-19.1,14.04-33.96,14.04-18.45,0-29.39-8.33-29.39-20.08s10.94-20.08,27.11-20.08c9.63,0,18.45,2.94,26.78,6.86,9.8-24.49,15.84-61.07,39.35-72.5,3.43-1.63,5.55-2.12,8-2.12,2.78,0,4.57.65,4.57,1.96,0,1.63-3.1,4.08-6.86,11.27-9.31,17.8-13.88,48.66-27.6,70.38,8.82,4.57,17.64,8.33,27.11,8.33,20.25,0,37.55-17.63,37.55-45.39,0-32.66-24.17-56.17-57.31-56.17-26.78,0-45.56,15.35-45.56,33.48,0,10.12,5.88,15.18,13.39,15.18,5.22,0,8.16-2.45,9.8-3.75.65-.49.98-.82,1.63-.82,1.14,0,1.96.98,1.96,3.43,0,8-8.49,19.59-23.35,19.59-13.88,0-24.82-10.29-24.82-26.45,0-26.45,29.23-49.47,67.6-49.47,47.52,0,78.21,35.27,78.21,72.99,0,34.62-25.64,53.88-53.88,53.88ZM49.48,212.25c-5.88-3.59-11.76-6.2-18.13-6.2-8.49,0-13.06,4.41-13.06,9.96s5.06,9.96,12.41,9.96c8.33,0,14.04-5.39,18.78-13.72Z"/>
    <path class="cls-1" d="M191.37,173.55c0,2.94-1.47,4.57-3.92,9.14-4.9,9.31-7.18,17.8-7.18,23.35,0,4.9,2.12,6.7,4.41,6.7,3.1,0,8-.98,19.1-16.82.65-.98,1.63-1.47,2.45-1.47,1.14,0,2.12.98,2.12,2.45,0,.82-.16,1.63-.82,2.78-12.25,22.04-23.19,27.27-31.68,27.27-9.63,0-14.21-8.33-14.21-18.45,0-7.51,2.29-17.96,5.55-26.12,4.08-10.12,8.82-18.62,14.86-18.62s9.31,4.41,9.31,9.8ZM181.74,145.14c0-7.35,6.37-13.23,14.04-13.23s10.94,5.55,10.94,10.29c0,7.35-6.86,12.41-14.53,12.41-5.88,0-10.45-3.92-10.45-9.47Z"/>
    <path class="cls-1" d="M240.52,165.55c1.96-1.14,3.92-1.8,6.04-1.8,11.11,0,16.17,10.29,16.17,20.25,0,18.78-16.17,42.94-37.07,42.94-16.98,0-24.17-11.59-24.17-26.94,0-6.69,1.14-14.04,3.1-21.72,6.86-27.76,23.51-68.91,41.31-68.91,8,0,12.08,6.69,12.08,16.49,0,11.59-7.35,26.29-17.47,39.68ZM230.23,177.8v-.49c-3.27,3.27-6.53,6.21-9.8,8.98-.82,3.27-1.63,8.33-1.63,14.04,0,7.84,2.45,16.49,9.63,16.49,9.8,0,17.63-14.21,17.63-25.8,0-9.47-3.43-13.72-7.67-13.72-2.78,0-4.41,2.29-6.37,2.29-.65,0-1.8-.16-1.8-1.8ZM223.21,176.33c13.55-14.7,23.19-31.35,23.19-40.66,0-1.14-.16-2.61-1.8-2.61-4.57,0-15.02,22.37-21.39,43.27Z"/>
    <path class="cls-1" d="M301.09,220.09c-5.71,5.23-11.27,6.86-16.65,6.86-10.45,0-18.78-7.67-18.78-21.06,0-21.39,18.29-42.13,37.39-42.13,8.65,0,14.86,5.22,14.86,10.45,0,.65-.16,1.14-.16,1.14,0,0,.65-.16,1.31-.16,3.43,0,6.04,3.1,6.04,7.19,0,8.98-6.7,19.92-10.45,25.64.49,2.94,1.8,4.41,3.43,4.41,2.29,0,6.7-.65,17.8-16.49.65-.98,1.63-1.47,2.45-1.47,1.14,0,2.12.98,2.12,2.45,0,.82-.16,1.63-.82,2.78-12.25,22.04-20.25,26.62-27.92,26.62-4.9,0-8.49-2.29-10.61-6.21ZM298.81,211.44v-1.96c0-8.49,2.78-18.13,7.19-25.15-1.8-.33-3.43-.98-3.43-1.96,0-1.47,1.31-2.29,1.31-4.9,0-2.94-1.47-4.73-4.25-4.73-6.2,0-16.16,11.76-16.16,28.25,0,8.49,3.59,13.23,8.82,13.23,2.78,0,4.9-1.14,6.53-2.78Z"/>
    <path class="cls-1" d="M355.79,186.13c-1.47,6.7-2.45,13.06-2.45,18.13,0,5.88,1.47,9.47,5.06,9.47,3.1,0,8.98-1.96,20.08-17.8.65-.98,1.63-1.47,2.45-1.47,1.14,0,2.12.98,2.12,2.45,0,.82-.16,1.63-.82,2.78-12.25,22.04-22.7,27.27-32.66,27.27-9.31,0-15.35-6.86-15.35-20.9,0-23.51,23.35-96.67,45.39-96.67,8,0,11.43,5.71,11.43,16.33,0,15.51-12.41,40.99-35.27,60.42ZM358.73,175.35c15.84-17.47,22.21-34.13,22.21-39.68,0-1.63-.49-2.61-1.8-2.61-3.92,0-14.04,21.23-20.41,42.29Z"/>
    <path class="cls-1" d="M398.41,186.13c-1.47,6.7-2.45,13.06-2.45,18.13,0,5.88,1.47,9.47,5.06,9.47,3.1,0,8.98-1.96,20.08-17.8.65-.98,1.63-1.47,2.45-1.47,1.14,0,2.12.98,2.12,2.45,0,.82-.16,1.63-.82,2.78-12.25,22.04-22.7,27.27-32.66,27.27-9.31,0-15.35-6.86-15.35-20.9,0-23.51,23.35-96.67,45.39-96.67,8,0,11.43,5.71,11.43,16.33,0,15.51-12.41,40.99-35.27,60.42ZM401.35,175.35c15.84-17.47,22.21-34.13,22.21-39.68,0-1.63-.49-2.61-1.8-2.61-3.92,0-14.04,21.23-20.41,42.29Z"/>
    <path class="cls-1" d="M438.91,169.96c2.29-6.2,8.33-9.8,14.7-9.8,10.12,0,18.94,9.47,18.94,25.47,0,19.59-14.04,41.31-35.11,41.31-14.21,0-21.88-9.96-21.88-22.37,0-16.82,14.04-31.02,23.35-34.62ZM454.42,176.17c-2.29,0-3.43,1.96-3.43,5.06,0,1.47.49,2.45.49,3.1,0,1.14-1.31,2.12-3.27,2.12-3.1,0-7.19-2.29-9.14-6.37-3.59,4.57-6.37,12.08-6.37,19.43,0,8.49,3.92,15.51,11.1,15.51,9.96,0,16.65-13.06,16.65-25.96,0-9.31-3.59-12.9-6.04-12.9Z"/>
  </g>
</svg>